<?xml version="1.0" encoding="UTF-8" standalone="no"?>
<!-- Generator: Adobe Illustrator 26.0.3, SVG Export Plug-In . SVG Version: 6.00 Build 0)  -->

<svg
   version="1.0"
   id="katman_1"
   x="0px"
   y="0px"
   viewBox="0 0 138.8 121.2"
   xml:space="preserve"
   sodipodi:docname="Neeva.svg"
   width="138.8"
   height="121.2"
   inkscape:version="1.2.1 (9c6d41e410, 2022-07-14)"
   xmlns:inkscape="http://www.inkscape.org/namespaces/inkscape"
   xmlns:sodipodi="http://sodipodi.sourceforge.net/DTD/sodipodi-0.dtd"
   xmlns="http://www.w3.org/2000/svg"
   xmlns:svg="http://www.w3.org/2000/svg"><defs
   id="defs127">
	
	
	<defs
   id="defs103">
		<filter
   id="Adobe_OpacityMaskFilter"
   filterUnits="userSpaceOnUse"
   x="78.800003"
   y="240.10001"
   width="138.8"
   height="121.2">
			<feColorMatrix
   type="matrix"
   values="1 0 0 0 0  0 1 0 0 0  0 0 1 0 0  0 0 0 1 0"
   id="feColorMatrix100" />
		</filter>
	</defs>
	
		<mask
   maskUnits="userSpaceOnUse"
   x="78.8"
   y="240.1"
   width="138.8"
   height="121.2"
   id="a_00000073686756316085123040000003492182474385368735_">
		<path
   class="st2"
   d="M 78.8,361.3 H 217.6 V 238.8 H 78.8 Z"
   id="path105" />
	</mask>
	
</defs><sodipodi:namedview
   id="namedview125"
   pagecolor="#ffffff"
   bordercolor="#666666"
   borderopacity="1.0"
   inkscape:showpageshadow="2"
   inkscape:pageopacity="0.0"
   inkscape:pagecheckerboard="0"
   inkscape:deskcolor="#d1d1d1"
   showgrid="false"
   inkscape:zoom="1.3433333"
   inkscape:cx="320.84367"
   inkscape:cy="59.55335"
   inkscape:window-width="2560"
   inkscape:window-height="1009"
   inkscape:window-x="-8"
   inkscape:window-y="-8"
   inkscape:window-maximized="1"
   inkscape:current-layer="katman_1" />
<style
   type="text/css"
   id="style94">
	.st0{fill-rule:evenodd;clip-rule:evenodd;fill:#191919;}
	.st1{fill-rule:evenodd;clip-rule:evenodd;fill:#73A8FF;}
	.st2{fill-rule:evenodd;clip-rule:evenodd;fill:#FFFFFF;filter:url(#Adobe_OpacityMaskFilter);}
	.st3{mask:url(#a_00000073686756316085123040000003492182474385368735_);}
	.st4{fill-rule:evenodd;clip-rule:evenodd;fill:#415AFF;}
</style>
<path
   class="st1"
   d="M -3.0517578e-6,67.999994 C 38.899997,70.399994 72.199997,40.999994 74.499997,2.3999939 c 0.1,-1.1 0.1,-2.3 0.1,-3.4 -43.8,-3.6 -73.80000005,29.3000001 -74.6000000517578,65.6000001 v 1.5 z"
   id="path98" /><g
   class="st3"
   mask="url(#a_00000073686756316085123040000003492182474385368735_)"
   id="g120"
   transform="translate(-78.800003,-240.10001)">
		<g
   id="g114">
			<path
   class="st4"
   d="m 78.8,361.3 h 43.5 V 317 H 78.8 Z"
   id="path108" />
			<path
   class="st4"
   d="m 163.3,240.1 c 0,1 -0.1,2 -0.1,3 -0.8,13.4 -5,26.5 -12.1,37.8 v 0.3 c 12.7,0 23,10.5 23,23.5 v 56.5 h 43.5 v -54.5 c 0,-32.6 -22.9,-60.6 -54.3,-66.6"
   id="path110" />
			<path
   class="st4"
   d="m 174.1,361.3 h 43.5 V 317 h -43.5 z"
   id="path112" />
		</g>
		<path
   class="st1"
   d="m 80.5,291.2 c 4.2,-0.7 18.4,-5.4 18.4,-5.4 0,0 12.6,-7 18.3,-19.9 4.1,-9.4 0.8,-17.2 -0.9,-20.2 -18.5,9 -31.4,26.1 -35.8,45.5"
   id="path116" />
		<path
   class="st1"
   d="m 111.2,276.8 c -13.5,0.5 -26.7,6.2 -28.5,7 -2.3,6.6 -3.6,13.7 -3.8,20.8 v 1.5 1.9 c 25.6,1.6 48.8,-10.7 62.4,-30.2 -6.3,1 -15.9,-1.5 -30.1,-1"
   id="path118" />
	</g>
</svg>
