<?xml version="1.0" encoding="UTF-8" standalone="no"?>
<svg
   width="256px"
   height="255px"
   viewBox="0 0 256 255"
   version="1.1"
   preserveAspectRatio="xMidYMid"
   id="svg49"
   sodipodi:docname="startpage2.svg"
   inkscape:version="1.1.2 (0a00cf5339, 2022-02-04, custom)"
   xmlns:inkscape="http://www.inkscape.org/namespaces/inkscape"
   xmlns:sodipodi="http://sodipodi.sourceforge.net/DTD/sodipodi-0.dtd"
   xmlns="http://www.w3.org/2000/svg"
   xmlns:svg="http://www.w3.org/2000/svg">
  <sodipodi:namedview
     id="namedview51"
     pagecolor="#ffffff"
     bordercolor="#666666"
     borderopacity="1.0"
     inkscape:pageshadow="2"
     inkscape:pageopacity="0.0"
     inkscape:pagecheckerboard="0"
     showgrid="false"
     inkscape:zoom="1.6294118"
     inkscape:cx="77.942238"
     inkscape:cy="158.03249"
     inkscape:window-width="1654"
     inkscape:window-height="1049"
     inkscape:window-x="337"
     inkscape:window-y="114"
     inkscape:window-maximized="0"
     inkscape:current-layer="svg49" />
  <defs
     id="defs7">
    <linearGradient
       x1="71.0046292%"
       y1="100%"
       x2="0%"
       y2="100%"
       id="linearGradient-1">
      <stop
         stop-color="#394A9F"
         offset="0%"
         id="stop2" />
      <stop
         stop-color="#6176B9"
         offset="100%"
         id="stop4" />
    </linearGradient>
  </defs>
  <g
     id="ViewLayer_LineSet"
     inkscape:label="ViewLayer_LineSet"
     transform="matrix(1.3889771,0,0,1.3000509,-56.50858,-37.400809)">
    <g
       inkscape:groupmode="layer"
       inkscape:label="fills"
       id="fills">
      <path
         fill_rule="evenodd"
         stroke="none"
         fill-opacity="1"
         fill="#cccccc"
         d="m 44.008,99.291 0.002,-0.035 1.141,-11.624 2.468,-10.552 3.659,-9.491 4.716,-8.439 5.638,-7.399 6.423,-6.368 7.075,-5.349 7.591,-4.338 7.971,-3.34 8.216,-2.351 8.327,-1.372 8.302,-0.404 8.971,0.676 8.753,1.811 8.427,2.864 7.995,3.841 7.456,4.736 6.812,5.553 6.06,6.292 5.203,6.951 4.238,7.53 3.167,8.031 1.99,8.453 0.706,8.796 -0.614,0.041 -1.698,0.032 -2.565,0.025 -3.216,0.017 -3.65,0.011 -3.866,0.004 h -3.866 l -3.649,-0.004 -3.216,-0.008 -2.566,-0.01 -1.698,-0.013 -0.614,-0.014 -0.376,-3.58 -1.061,-3.796 -1.697,-3.912 -2.285,-3.925 -2.824,-3.84 -3.314,-3.651 -3.755,-3.364 -4.147,-2.974 -4.491,-2.483 -4.784,-1.892 -5.03,-1.2 -5.226,-0.407 -5.078,0.307 -4.941,0.87 -4.752,1.42 -4.508,1.958 -4.211,2.484 -3.86,2.998 -3.454,3.5 -2.996,3.989 -2.484,4.467 -1.917,4.933 -1.298,5.386 -0.623,5.827 -0.266,0.11 -0.767,0.037 -1.245,-0.003 -1.699,-0.01 -2.128,0.016 -2.535,0.075 -2.917,0.166 -3.275,0.29 -3.61,0.447 -3.921,0.637 -4.207,0.859 -4.471,1.115 10e-4,-0.028 0.003,-0.076 0.005,-0.116 0.006,-0.146 0.016,-0.342 0.009,-0.178 v 0.001 l 0.015,-0.318 0.005,-0.121 z"
         id="path2"
         style="fill:#6573ff;fill-opacity:1" />
      <path
         fill_rule="evenodd"
         stroke="none"
         fill-opacity="1"
         fill="#cccccc"
         d="m 46.582,121.134 -0.623,0.128 3.188,8.649 3.975,7.84 4.669,7.034 5.27,6.232 5.78,5.435 6.198,4.642 6.523,3.853 6.755,3.068 6.896,2.286 6.945,1.51 6.901,0.738 6.765,-0.031 2.504,-0.18 2.492,-0.229 2.466,-0.285 2.431,-0.344 2.381,-0.409 2.321,-0.478 2.247,-0.551 2.163,-0.631 2.066,-0.714 1.957,-0.802 1.836,-0.895 1.703,-0.992 0.935,1.048 2.466,2.977 3.689,4.522 4.607,5.684 5.218,6.46 5.524,6.855 5.524,6.864 5.218,6.489 4.605,5.732 3.687,4.59 2.462,3.064 0.933,1.154 0.988,0.894 1.188,0.746 1.362,0.596 1.511,0.442 1.634,0.283 1.733,0.121 1.805,-0.045 1.852,-0.215 1.874,-0.388 1.871,-0.566 1.842,-0.747 1.787,-0.932 1.114,-0.773 1.08,-0.996 1.018,-1.197 0.927,-1.382 0.807,-1.546 0.658,-1.691 0.48,-1.818 0.272,-1.925 0.035,-2.013 -0.23,-2.082 -0.524,-2.131 -0.848,-2.162 -0.907,-1.236 -2.346,-3.083 -3.496,-4.56 -4.353,-5.667 -4.919,-6.406 -5.193,-6.775 -5.177,-6.774 -4.868,-6.405 -4.267,-5.666 -3.377,-4.557 -2.193,-3.079 -0.718,-1.231 2.277,-3.738 1.955,-3.41 1.668,-3.14 1.416,-2.928 1.201,-2.771 1.021,-2.673 0.877,-2.631 0.769,-2.646 0.697,-2.718 0.661,-2.848 0.66,-3.033 0.695,-3.278 -0.598,-0.068 -1.681,-0.062 -2.548,-0.056 -3.198,-0.049 -3.633,-0.04 -3.852,-0.031 -3.854,-0.02 -3.642,-0.009 -3.212,0.004 -2.568,0.017 -1.707,0.032 -0.629,0.046 -2.369,5.898 -2.669,5.147 -2.917,4.442 -3.11,3.782 -3.253,3.17 -3.342,2.603 -3.379,2.082 -3.364,1.608 -3.295,1.179 -3.174,0.797 -3.001,0.46 -2.775,0.17 -3.063,-0.05 -3.237,-0.269 -3.361,-0.531 -3.437,-0.836 -3.462,-1.182 -3.44,-1.573 -3.366,-2.006 -3.245,-2.482 -3.073,-3 -2.853,-3.562 -2.583,-4.166 -2.265,-4.813 -0.65,0.049 -1.776,0.188 -2.676,0.301 -3.351,0.387 -3.8,0.447 -4.023,0.48 -4.02,0.487 -3.793,0.469 -3.339,0.423 -2.659,0.351 z"
         id="path4"
         style="fill:#202945;fill-opacity:1" />
    </g>
    <g
       inkscape:groupmode="layer"
       id="strokes"
       inkscape:label="strokes" />
  </g>
</svg>
