<?xml version="1.0" encoding="UTF-8" standalone="no"?>
<svg
   id="Layer_1"
   data-name="Layer 1"
   width="112.69367"
   height="117.29983"
   viewBox="0 0 112.69367 117.29983"
   version="1.1"
   sodipodi:docname="swisscows-seeklogo.com-2.svg"
   inkscape:version="1.3 (0e150ed6c4, 2023-07-21)"
   xmlns:inkscape="http://www.inkscape.org/namespaces/inkscape"
   xmlns:sodipodi="http://sodipodi.sourceforge.net/DTD/sodipodi-0.dtd"
   xmlns="http://www.w3.org/2000/svg"
   xmlns:svg="http://www.w3.org/2000/svg"
   xmlns:rdf="http://www.w3.org/1999/02/22-rdf-syntax-ns#"
   xmlns:cc="http://creativecommons.org/ns#"
   xmlns:dc="http://purl.org/dc/elements/1.1/">
  <defs
     id="defs2" />
  <sodipodi:namedview
     id="namedview2"
     pagecolor="#ffffff"
     bordercolor="#000000"
     borderopacity="0.25"
     inkscape:showpageshadow="2"
     inkscape:pageopacity="0.0"
     inkscape:pagecheckerboard="0"
     inkscape:deskcolor="#d1d1d1"
     inkscape:zoom="5.9614535"
     inkscape:cx="169.925"
     inkscape:cy="58.626642"
     inkscape:window-width="2560"
     inkscape:window-height="1009"
     inkscape:window-x="-8"
     inkscape:window-y="-8"
     inkscape:window-maximized="1"
     inkscape:current-layer="Layer_1" />
  <title
     id="title1">Swisscows logo - Brandlogos.net</title>
  <path
     d="m 29.773671,117.29983 1.38,-7.09 c -0.32,-6.67 -1.37,-13.100002 -3.94,-18.850002 1.92,-3 2.62,-8.22 3.17,-13.65 l -8.07,-13.24 c -0.23,0.05 -1.42,-1.13 -2,-2 l -0.87,0.07 c -13.0000002,0.94 -13.2900002,-12.25 -11.4500002,-22.29 1.8,-6.82 -8.73000004,-2.95 -7.86000004,-3.37 -0.76,-2.13 1.83000004,-5.59 5.00000004,-6.77 1.19,1 6.4700002,1.87 5.0000002,9.85 -2.6800002,4.67 -0.3400002,26.18 13.76,16 l 2.09,-3 a 107.14,107.14 0 0 1 18.12,-9.15 c 2.4,-3 7.61,-9.59 8.84,-10.79 a 34.18,34.18 0 0 1 4,-3 c 3.41,-4.44 6.89,-12.66 6.56,-16.08 -1.54,1.35 -3.18,2.82 -5.19,-0.38 -1.59,-2.52 2.19,-5.1800002 5.81,-4.7300002 l 0.19,-0.21 c -2.52,-3.81 5.35,-10.25 5.44,-8.24000003 -1.84,1.57000003 -3.61,3.37000003 -2.23,6.27000003 a 5.69,5.69 0 0 1 5.91,-1.09 l 1.93,0.72 c 6.36,1.34 13.67,-4.49 13.81,0.11 v 1.62 a 19.11,19.11 0 0 1 -3.68,2.3400002 8.52,8.52 0 0 0 3.72,-0.7800002 v 1.4700002 l -2.31,2.29 a 31.91,31.91 0 0 1 -8,8.71 18.69,18.69 0 0 1 0.07,2.57 28.25,28.25 0 0 0 11,-1.19 l -0.07,-0.11 c -1,-1.69 0.23,-5.17 1.85,-6.93 a 4.94,4.94 0 0 1 1.83,-0.86 l 5.09,4.64 a 3.16,3.16 0 0 1 -0.57,1.67 c -2.18,2.39 -5.65,3.59 -7.5,2.25 a 21.19,21.19 0 0 1 -11,7.22 q 0.12,0.45 0.28,0.87 a 8.34,8.34 0 0 1 1.43,2.46 25,25 0 0 1 1.11,2.57 c 3.1,-0.23 5.86,-0.11 10.38,-0.68 l 11.479999,3.61 8.41,2.54 -4.87,2.64 -4.59,-2.24 c -3.579999,-0.72 -6.849999,2 -11.329999,-0.64 a 27.32,27.32 0 0 0 -3.09,1.65 c 1.94,0.63 4.07,1.4 7,2.17 l 7.089999,11.89 2.93,6.79 -5.15,-1.26 -0.699999,-4.42 c -3.35,-5.6 -6.62,-5.15 -9.71,-7.3 -2.5,0.59 -5.72,1.69 -9.12,2.72 a 35.5,35.5 0 0 1 -7.59,10.19 l -12.3,6.1 c 0.07,0.2 0.14,0.4 0.2,0.61 0.06,0.21 0.14,0.54 0.19,0.81 1.73,0.78 3.54,2.22 1.94,3 a 3.86,3.86 0 0 1 -2,0.32 c 0,0.14 -0.07,0.28 -0.11,0.41 1.3,1.13 2.28,2.62 0.72,3 a 4,4 0 0 1 -2.18,-0.19 c -0.15,0.19 -0.3,0.37 -0.47,0.54 0.7,1.56 1,3.28 -0.61,3 a 4.08,4.08 0 0 1 -2,-1.14 l -0.21,0.09 c 0.22,1.82 0,3.86 -1.54,3 a 4.86,4.86 0 0 1 -1.78,-2.35 h -0.58 a 32.64,32.64 0 0 1 -5.11,8.76 l 10.18,2.35 3.64,3.57 -5.35,2.63 -1.94,-4.13 c -3.55,0.14 -10.64,0.4 -10.82,0.1 -0.18,-0.3 -1.17,-3.31 -2.43,-7 -1.39,1.18 -3,2.4 -4.69,3.64 -0.14,7.28 -1.87,13.090002 -2.32,18.000002 1,2 1,4.13 1.29,6.17 z m 55.34,-90.720002 a 18.12,18.12 0 0 1 -6.19,-0.1 25.14,25.14 0 0 0 0.28,3.45 25.54,25.54 0 0 0 5.92,-3.35 z"
     id="path2" />
  <metadata
     id="metadata2">
    <rdf:RDF>
      <cc:Work
         rdf:about="">
        <dc:title>Swisscows logo - Brandlogos.net</dc:title>
      </cc:Work>
    </rdf:RDF>
  </metadata>
</svg>
