<?xml version="1.0" encoding="UTF-8" standalone="no"?>
<svg
   width="256px"
   height="255px"
   viewBox="0 0 256 255"
   version="1.1"
   preserveAspectRatio="xMidYMid"
   id="svg49"
   sodipodi:docname="youtube.svg"
   inkscape:version="1.1.2 (0a00cf5339, 2022-02-04, custom)"
   xmlns:inkscape="http://www.inkscape.org/namespaces/inkscape"
   xmlns:sodipodi="http://sodipodi.sourceforge.net/DTD/sodipodi-0.dtd"
   xmlns="http://www.w3.org/2000/svg"
   xmlns:svg="http://www.w3.org/2000/svg">
  <sodipodi:namedview
     id="namedview51"
     pagecolor="#ffffff"
     bordercolor="#666666"
     borderopacity="1.0"
     inkscape:pageshadow="2"
     inkscape:pageopacity="0.0"
     inkscape:pagecheckerboard="0"
     showgrid="false"
     inkscape:zoom="1.6294118"
     inkscape:cx="102.18411"
     inkscape:cy="168.15884"
     inkscape:window-width="1920"
     inkscape:window-height="1052"
     inkscape:window-x="0"
     inkscape:window-y="0"
     inkscape:window-maximized="1"
     inkscape:current-layer="svg49"
     inkscape:snap-object-midpoints="true" />
  <defs
     id="defs7">
    <linearGradient
       x1="71.0046292%"
       y1="100%"
       x2="0%"
       y2="100%"
       id="linearGradient-1">
      <stop
         stop-color="#394A9F"
         offset="0%"
         id="stop2" />
      <stop
         stop-color="#6176B9"
         offset="100%"
         id="stop4" />
    </linearGradient>
  </defs>
  <g
     id="g840"
     transform="matrix(1.5438411,0,0,1.5438411,5.4943042,43.059669)">
    <path
       d="M 154,17.5 C 152.18,10.77 146.93,5.5 140.2,3.7 131.16,0.21 43.6,-1.5 18.2,3.8 11.47,5.62 6.2,10.87 4.4,17.6 0.32,35.5 0.01,74.2 4.5,92.5 c 1.82,6.73 7.07,12 13.8,13.8 17.9,4.12 103,4.7 122,0 6.73,-1.82 12,-7.07 13.8,-13.8 4.35,-19.5 4.66,-55.8 -0.1,-75 z"
       fill="#ff0000"
       id="path828" />
    <path
       d="M 105,55 64.2,31.6 v 46.8 z"
       fill="#ffffff"
       id="path830" />
  </g>
</svg>
